<svg width="1200" height="800" viewBox="0 0 1200 800" fill="none" xmlns="http://www.w3.org/2000/svg">
<mask id="mask0_201_2705" style="mask-type:luminance" maskUnits="userSpaceOnUse" x="0" y="0" width="1200" height="800">
<path d="M1200 0H0V800H1200V0Z" fill="white"/>
</mask>
<g mask="url(#mask0_201_2705)">
<path d="M-42.4 755.2C-33.8 706.8 15.3 677.9 62.5 672.3C109.7 666.7 157.9 677.7 205.7 677.7C333.7 677.6 454.4 589.5 496.3 465.5C509.7 425.8 515.6 383.4 528.7 343.5C541.8 303.7 564 264.8 600.1 245.9C652 218.6 717 239.6 769.4 270.1C821.8 300.6 870.8 341 928.8 355C1005 373.4 1084.3 341.7 1142.6 290.8C1200.9 239.9 1242.1 171.4 1282.3 104" stroke="#FF4DC4" stroke-miterlimit="10"/>
<path d="M-45.3 750.5C-35.8 702.3 13.1 673.5 60.4 667.7C80.9 665.2 101.5 665.8 122.2 667.5C149.4 669.7 176.6 673.6 203.6 674.2C258.7 675.4 312.5 661.3 359.7 633.9C396.2 612.7 428.6 584.8 454.5 551.3C473 527.5 487.8 500.7 498.1 471.6C502.7 458.6 506.5 445.2 510 431.7C517.1 404.3 522.9 376.5 532.1 350C542.5 319.9 558.3 290.8 581.7 271C589 264.8 596.9 259.5 605.6 255.3C642 237.8 684.1 243.8 724.4 258.7C741.8 265.1 758.9 273.2 774.8 281.8C792.6 291.5 810 301.9 827.3 311.9C861.3 331.5 895 349.6 931.4 356.1C955.1 360.4 978.4 359.2 1001.6 354.1C1048.5 343.6 1094.7 315.6 1133.2 279.8C1143.7 270 1153.8 259.6 1163.6 248.9C1206.9 201.1 1243.1 145.9 1278.8 93.7002" stroke="#F552C5" stroke-miterlimit="10"/>
<path d="M-48.1 745.8C-37.7 697.9 11 669.1 58.4 663.1C78.9 660.5 99.6 661.1 120.4 662.9C147.6 665.3 174.7 669.6 201.8 670.8C256.8 673.3 310.4 661.4 358.1 635.2C395 614.9 427.9 588.3 454.8 556.1C474 533 489.3 506.6 500.1 477.7C504.9 464.8 508.9 451.4 512.5 437.9C519.9 410.6 526 382.7 535.6 356.4C546.5 326.5 562.8 298.1 587 279.3C594.5 273.5 602.5 268.5 611.2 264.7C647.8 248.8 689.3 256.3 729.5 271.2C747 277.7 764.2 285.4 780.2 293.5C798.2 302.5 815.8 312.1 833 320.8C866.9 338.1 899.6 353.4 933.9 357.2C956.1 359.7 977.4 356.8 998.7 350.2C1041.9 336.7 1085.8 306.1 1123.6 268.8C1134 258.5 1144 247.8 1153.8 236.8C1197.5 187.6 1236.4 132.8 1274.9 83.5" stroke="#EB57C7" stroke-miterlimit="10"/>
<path d="M-51 741C-39.7 693.4 8.69995 664.5 56.2 658.4C76.7 655.8 97.5 656.3 118.3 658.2C145.5 660.7 172.6 665.4 199.6 667.2C254.5 670.9 308 661.4 356.2 636.3C393.4 616.9 427 591.7 454.8 560.7C474.8 538.4 490.6 512.4 501.8 483.7C506.8 470.9 510.9 457.6 514.8 444.1C522.5 416.8 529 388.9 538.9 362.8C550.2 333.1 567.1 305.4 592 287.5C599.7 282 607.7 277.4 616.5 274C653.2 259.7 694.2 268.7 734.4 283.6C751.9 290.1 769.2 297.6 785.5 305.1C803.7 313.5 821.4 322 838.6 329.7C872.4 344.7 904.3 357.2 936.4 358.2C957.2 358.9 976.3 354.3 995.7 346.3C1035.2 330 1076.8 296.7 1113.9 257.7C1124.1 247 1134.1 235.8 1144 224.5C1188.1 173.8 1229.8 119.5 1271 73.1001" stroke="#E15DC8" stroke-miterlimit="10"/>
<path d="M-53.9 736.3C-41.7 688.9 6.49998 660.1 54.1 653.8C74.7 651.1 95.5 651.6 116.3 653.7C143.5 656.4 170.6 661.4 197.5 663.9C252.3 668.8 305.7 661.6 354.3 637.7C391.9 619.2 426.1 595.4 454.8 565.6C475.6 544.1 491.9 518.5 503.5 490C508.7 477.2 513 464 517 450.5C525 423.3 531.8 395.3 542.2 369.4C554 340 571.3 312.8 597.1 296C604.9 290.9 613.1 286.6 621.8 283.6C658.7 270.9 699.1 281.4 739.2 296.4C756.7 303 774.2 310.1 790.6 317.1C808.9 324.9 826.9 332.5 844 338.9C877.7 351.5 908.8 361.3 938.7 359.6C958.1 358.5 975 352.2 992.6 342.7C1028.4 323.4 1067.6 287.6 1104.2 247C1114.2 235.8 1124.2 224.3 1134.2 212.7C1178.7 160.6 1223.1 106.8 1267.1 63.2002" stroke="#D762CA" stroke-miterlimit="10"/>
<path d="M-56.7 731.6C-43.7 684.5 4.39997 655.7 52.1 649.2C72.7 646.4 93.6 646.9 114.4 649.1C141.6 651.9 168.7 657.4 195.5 660.4C250.2 666.6 303.5 661.6 352.6 638.9C390.6 621.3 425.3 598.8 455 570.3C476.6 549.5 493.3 524.4 505.4 496C510.8 483.3 515.3 470.1 519.4 456.6C527.8 429.4 534.9 401.4 545.6 375.7C557.8 346.5 575.7 320 602.3 304.1C610.3 299.3 618.5 295.4 627.3 292.8C664.3 281.7 704.2 293.6 744.3 308.7C761.9 315.3 779.5 322.2 796.1 328.6C814.6 335.8 832.7 342.4 849.8 347.7C883.4 358 913.7 365 941.4 360.5C959.5 357.6 974.1 349.6 989.9 338.6C1022 316.4 1058.9 277.9 1094.8 235.7C1104.7 224 1114.6 212.1 1124.6 200.2C1169.5 146.6 1216.6 93.3001 1263.5 52.6001" stroke="#CD67CB" stroke-miterlimit="10"/>
<path d="M-59.6 726.8C-45.7 680 2.2 651.1 50 644.6C70.6 641.8 91.6 642.2 112.4 644.5C139.7 647.5 166.7 653.3 193.5 656.9C248.1 664.3 301.3 661.7 350.8 640.1C389.2 623.4 424.5 602.3 455.1 575C477.5 555 494.7 530.3 507.2 502.1C512.7 489.5 517.4 476.4 521.8 462.9C530.5 435.7 537.9 407.7 549 382.2C561.6 353.2 580 327.3 607.5 312.5C615.7 308.1 624 304.5 632.8 302.3C670 292.8 709.3 306.2 749.4 321.3C767 327.9 784.8 334.5 801.5 340.4C820.2 347 838.4 352.6 855.6 356.7C889 364.7 918.8 368.9 944.1 361.7C960.9 356.9 973.3 347.2 987.2 334.9C1015.6 309.8 1050.2 268.7 1085.5 224.9C1095.2 212.8 1105.1 200.5 1115.2 188.3C1160.5 133.3 1210.4 80.4 1260 42.5" stroke="#C36CCD" stroke-miterlimit="10"/>
<path d="M-62.4 722.1C-47.6 675.6 0.0999641 646.7 47.9 640C68.6 637.1 89.6 637.5 110.5 639.9C137.8 643 164.7 649.2 191.5 653.5C246 662.2 299.1 661.8 349 641.4C387.8 625.6 423.7 605.9 455.1 579.8C478.3 560.6 496 536.3 508.9 508.3C514.6 495.8 519.5 482.7 524 469.2C533 442.1 540.7 414 552.2 388.7C565.3 359.9 584.1 334.7 612.5 320.8C620.8 316.7 629.2 313.5 638.1 311.6C675.4 303.7 714.2 318.6 754.2 333.7C771.9 340.4 789.8 346.7 806.6 352C825.5 358 843.9 362.6 861 365.6C894.3 371.3 923.4 372.5 946.3 362.8C961.9 356.2 971.9 344.8 984 331C1008.7 302.9 1040.9 259.3 1075.6 213.8C1085.2 201.2 1095 188.5 1105.2 176C1150.9 119.5 1203.5 67.2001 1255.9 32.1001" stroke="#B972CE" stroke-miterlimit="10"/>
<path d="M-65.3 717.4C-49.6 671.1 -2.10001 642.3 45.8 635.4C66.5 632.4 87.6 632.8 108.5 635.3C135.8 638.6 162.7 645.1 189.4 650C243.8 659.9 296.8 661.8 347.2 642.6C386.4 627.7 422.9 609.4 455.2 584.5C479.2 566 497.3 542.2 510.7 514.3C516.6 501.9 521.6 488.8 526.3 475.3C535.6 448.2 543.7 420.1 555.5 395C569 366.4 588.4 341.8 617.5 329C626 325.3 634.5 322.4 643.4 320.9C680.9 314.6 719 331 759.1 346.1C776.8 352.8 794.8 358.8 811.9 363.6C831 369 849.5 372.7 866.6 374.4C899.8 377.8 928.3 376 948.8 363.7C963.2 355.1 970.8 342.1 981.1 327C1002.1 295.9 1032 249.8 1066.1 202.7C1075.5 189.7 1085.3 176.6 1095.5 163.7C1141.6 105.8 1196.9 53.9002 1252.1 21.7002" stroke="#AF77CF" stroke-miterlimit="10"/>
<path d="M-68.1 712.6C-51.5 666.6 -4.20001 637.7 43.8 630.7C64.5 627.7 85.6 628 106.6 630.6C133.9 634 160.8 641 187.4 646.5C241.7 657.7 294.5 661.9 345.4 643.8C385 629.8 422.1 612.9 455.3 589.2C480.1 571.5 498.7 548.1 512.5 520.4C518.6 508.1 523.8 495.1 528.7 481.6C538.4 454.6 546.7 426.4 559 401.5C573 373.1 592.8 349.1 622.8 337.4C631.4 334 640 331.6 649 330.4C686.6 325.7 724.2 343.6 764.3 358.7C782.1 365.4 800.2 371.2 817.4 375.4C836.7 380.1 855.3 382.9 872.4 383.5C905.4 384.6 933.4 379.6 951.5 365C964.7 354.4 969.9 339.9 978.4 323.3C995.7 289.3 1023.3 240.5 1056.7 191.9C1065.9 178.4 1075.7 164.9 1086 151.8C1132.5 92.5002 1190.5 41.0002 1248.5 11.7002" stroke="#A57CD1" stroke-miterlimit="10"/>
<path d="M-71 707.9C-53.6 662.2 -6.40005 633.3 41.7 626.1C62.4 623 83.6 623.3 104.6 626.1C131.9 629.7 158.8 637 185.4 643.1C239.6 655.5 292.3 662 343.7 645.1C383.7 632 421.5 616.5 455.5 594C481.1 577.1 500.2 554.1 514.4 526.6C520.7 514.4 526.1 501.4 531.1 487.9C541.1 460.9 549.8 432.7 562.4 408C576.8 379.9 597.1 356.4 628 345.7C636.8 342.7 645.5 340.6 654.5 339.8C692.3 336.7 729.3 356 769.3 371.2C787.1 378 805.4 383.4 822.7 387.1C842.1 391.2 861 393 878 392.4C910.9 391.2 938.3 382.9 954 366C965.9 353.2 968.9 337.3 975.5 319.3C989.1 282.3 1014.4 231 1047.1 180.7C1056.2 166.7 1065.9 152.9 1076.3 139.4C1123.2 78.6002 1184 27.7002 1244.8 1.2002" stroke="#9B81D2" stroke-miterlimit="10"/>
<path d="M-73.9 703.2C-55.6 657.7 -8.6 628.9 39.5 621.5C60.3 618.3 81.5 618.6 102.6 621.5C129.9 625.2 156.7 632.9 183.3 639.6C237.4 653.3 290 662 341.8 646.3C382.2 634.1 420.6 620 455.5 598.7C481.9 582.6 501.5 560 516.1 532.6C522.6 520.5 528.1 507.5 533.3 494C543.6 467 552.6 438.9 565.6 414.3C580.4 386.4 601.2 363.5 633 353.9C641.9 351.2 650.8 349.5 659.7 349.1C697.6 347.6 734.1 368.4 774.1 383.6C792 390.4 810.4 395.6 827.9 398.7C847.5 402.2 866.5 403.1 883.5 401.3C916.2 397.8 942.9 386.1 956.4 367.1C967 352.2 967.7 334.9 972.5 315.5C982.4 275.5 1005.3 221.7 1037.5 169.8C1046.4 155.4 1056.1 141.1 1066.5 127.4C1113.8 65.2001 1177.3 14.7001 1240.9 -8.8999" stroke="#9187D4" stroke-miterlimit="10"/>
<path d="M-76.7 698.4C-57.5 653.2 -10.7 624.3 37.5 616.8C58.3 613.6 79.6 613.8 100.7 616.8C128.1 620.7 154.8 628.8 181.3 636.1C235.3 651 287.8 662 340.1 647.5C380.9 636.2 419.9 623.5 455.7 603.4C482.9 588.1 502.9 565.9 518 538.7C524.6 526.7 530.4 513.8 535.7 500.3C546.3 473.4 555.6 445.2 569 420.9C584.3 393.2 605.5 370.8 638.2 362.3C647.3 359.9 656.2 358.6 665.2 358.6C703.3 358.7 739.2 381 779.2 396.3C797.1 403.1 815.6 408 833.3 410.6C853.1 413.5 872.2 413.4 889.2 410.4C921.8 404.7 947.6 389.5 958.9 368.3C968.1 351.2 966.6 332.5 969.5 311.7C975.6 268.7 996.3 212.3 1027.8 158.8C1036.5 143.9 1046.1 129.3 1056.7 115.2C1104.4 51.5002 1170.6 1.50019 1237 -19.2998" stroke="#878CD5" stroke-miterlimit="10"/>
<path d="M-79.6 693.7C-59.5 648.8 -12.9 619.9 35.4 612.3C56.2 609 77.6 609.2 98.7 612.3C126.1 616.3 152.8 624.8 179.2 632.7C233.1 648.8 285.5 662.2 338.2 648.8C379.3 638.4 419 627.1 455.7 608.2C483.8 593.7 504.2 571.9 519.7 544.9C526.5 533 532.5 520.1 538 506.6C549 479.7 558.6 451.5 572.4 427.4C588.1 399.9 609.8 378.1 643.3 370.7C652.5 368.7 661.6 367.7 670.6 368.1C708.8 369.8 744.2 393.6 784.1 408.9C802 415.8 820.7 420.3 838.5 422.4C858.5 424.7 877.7 423.7 894.7 419.5C927.1 411.5 952 392.9 961.3 369.6C969 350.3 965.4 330.3 966.5 308C968.9 262.1 987.3 203.1 1018.2 148C1026.8 132.6 1036.3 117.6 1046.9 103.3C1095 38.2002 1163.9 -11.2998 1233.1 -29.2998" stroke="#7D91D7" stroke-miterlimit="10"/>
<path d="M-82.4 689C-61.4 644.3 -15 615.5 33.4 607.7C54.3 604.3 75.7 604.5 96.8 607.7C124.2 611.9 150.9 620.7 177.3 629.3C231.1 646.7 283.4 662.3 336.6 650.1C378.1 640.6 418.5 630.8 456 613C484.9 599.3 505.8 577.9 521.7 551C528.7 539.1 534.8 526.3 540.5 512.8C551.8 486 561.7 457.7 575.9 433.8C592.1 406.5 614.2 385.2 648.6 378.9C658 377.2 667.1 376.6 676.2 377.4C714.6 380.6 749.4 406 789.3 421.3C807.3 428.2 826.1 432.5 844.1 434C864.3 435.7 883.7 433.7 900.6 428.3C932.9 418 956.8 396.1 964.1 370.6C970.2 349.1 964.6 327.7 963.9 304.1C962.5 255.2 978.7 193.7 1008.9 136.9C1017.3 121.1 1026.8 105.7 1037.5 91.0001C1086 24.4001 1157.7 -24.6 1229.7 -39.7" stroke="#7396D8" stroke-miterlimit="10"/>
<path d="M-85.3 684.2C-63.5 639.8 -17.2001 610.9 31.2 603C52.1 599.6 73.6 599.7 94.8 603.1C122.2 607.4 148.9 616.7 175.2 625.8C228.9 644.4 281 662.3 334.7 651.3C376.6 642.7 417.6 634.3 456 617.7C485.7 604.8 507 583.8 523.4 557.1C530.6 545.3 536.9 532.6 542.7 519.1C554.3 492.3 564.6 464 579.1 440.3C595.7 413.2 618.2 392.5 653.6 387.3C663.2 385.9 672.4 385.7 681.5 386.9C720 391.7 754.3 418.5 794.1 433.9C812.1 440.9 831.1 444.8 849.2 445.8C869.5 446.8 889.1 444 906 437.4C938.2 424.9 961 399.7 966.4 371.8C970.9 348.2 963.3 325.4 960.8 300.3C955.7 248.4 969.5 184.4 999.2 126C1007.4 109.7 1016.9 93.9002 1027.7 79.0002C1076.6 11.0002 1151 -37.5998 1225.8 -49.7998" stroke="#699CD9" stroke-miterlimit="10"/>
<path d="M-88.1 679.5C-65.4 635.4 -19.3 606.5 29.2 598.4C50.1 594.9 71.7 595 92.9 598.5C120.3 603 146.9 612.6 173.2 622.3C226.8 642.2 278.8 662.4 332.9 652.5C375.2 644.8 416.9 637.8 456.1 622.4C486.6 610.4 508.4 589.7 525.2 563.2C532.6 551.5 539 538.8 545.1 525.3C557 498.6 567.6 470.2 582.5 446.7C599.5 419.9 622.5 399.6 658.8 395.6C668.5 394.5 677.8 394.7 687 396.3C725.7 402.7 759.4 431 799.2 446.4C817.3 453.4 836.4 457.1 854.7 457.5C875.2 457.9 894.9 454.1 911.8 446.3C943.8 431.5 965.6 403 969.1 372.9C972 347.2 962.3 323 958.1 296.5C949.1 241.7 960.8 175 989.8 115.1C997.9 98.4 1007.3 82.2 1018.1 66.9C1067.4 -2.60001 1144.5 -50.7 1222.1 -60" stroke="#5FA1DB" stroke-miterlimit="10"/>
<path d="M-91 674.8C-67.4 631 -21.5 602.1 27.1 593.8C48.1 590.2 69.7 590.3 90.9 593.9C118.4 598.6 144.9 608.5 171.2 618.9C224.7 640 276.6 662.5 331.2 653.8C373.9 647 416.2 641.5 456.3 627.2C487.7 616 509.9 595.7 527.1 569.4C534.7 557.8 541.3 545.1 547.5 531.6C559.7 504.9 570.6 476.5 585.9 453.2C603.4 426.6 626.9 406.8 663.9 403.9C673.8 403.1 683.2 403.7 692.4 405.6C731.2 413.6 764.4 443.4 804.2 458.8C822.3 465.8 841.5 469.2 860 469.1C880.7 468.9 900.6 464.2 917.4 455.2C949.3 438.1 970 406.5 971.5 373.9C972.8 346.2 961.1 320.4 955.1 292.5C942.4 234.8 951.8 165.5 980.1 103.9C988 86.7 997.4 70.1 1008.3 54.6C1058 -16.3 1137.8 -63.9 1218.2 -70.5" stroke="#55A6DC" stroke-miterlimit="10"/>
<path d="M-93.9 670C-69.4 626.4 -23.8 597.5 25 589.1C46 585.5 67.6 585.5 88.9 589.2C116.4 594 142.9 604.4 169.1 615.3C222.5 637.7 274.3 662.4 329.3 654.9C372.4 649 415.3 645 456.3 631.8C488.5 621.4 511.1 601.5 528.8 575.3C536.6 563.8 543.4 551.2 549.7 537.7C562.3 511 573.5 482.6 589.2 459.5C607.1 433.1 631.1 413.8 669 412.1C679 411.7 688.5 412.7 697.8 414.9C736.8 424.5 769.3 455.8 809.1 471.2C827.3 478.3 846.6 481.4 865.2 480.7C886.1 479.9 906.1 474.2 922.9 464C954.7 444.7 974.3 409.8 973.9 374.9C973.6 345.2 960 317.9 952.1 288.5C935.7 227.8 942.7 156 970.5 92.8001C978.2 75.1001 987.6 58.2001 998.6 42.3001C1048.7 -30.0999 1131.3 -77.1999 1214.4 -80.8999" stroke="#4BABDE" stroke-miterlimit="10"/>
<path d="M-96.7 665.3C-71.4 622 -25.9 593.1 22.9 584.5C43.9 580.8 65.6 580.8 87 584.6C114.5 589.6 141 600.3 167.1 611.9C220.4 635.5 272.1 662.6 327.6 656.2C371.1 651.2 414.7 648.6 456.4 636.6C489.4 627.1 512.5 607.5 530.7 581.5C538.6 570.1 545.6 557.5 552.2 544C565.1 517.4 576.6 488.9 592.7 466C611.1 439.8 635.5 421 674.3 420.4C684.5 420.3 694.1 421.7 703.3 424.3C742.4 435.5 774.4 468.3 814.2 483.8C832.4 490.9 851.9 493.7 870.7 492.5C891.8 491.1 912 484.5 928.7 473.1C960.4 451.6 978.9 413.5 976.6 376.1C974.6 344.4 959.1 315.6 949.4 284.8C929.3 221.1 934 146.8 961.1 81.9C968.7 63.8 978 46.4 989 30.3C1039.5 -43.5 1124.8 -90.2 1210.8 -91" stroke="#41B1DF" stroke-miterlimit="10"/>
<path d="M-99.6 660.6C-73.4 617.6 -28.1 588.7 20.8 580C41.9 576.2 63.6 576.2 85 580.1C112.5 585.2 139 596.3 165 608.5C218.2 633.4 269.8 662.7 325.7 657.5C369.6 653.4 413.8 652.4 456.4 641.4C490.2 632.8 513.8 613.5 532.4 587.7C540.5 576.4 547.7 563.8 554.4 550.3C567.6 523.7 579.5 495.2 595.9 472.5C614.7 446.5 639.6 428.1 679.3 428.8C689.6 429 699.3 430.8 708.6 433.8C747.9 446.6 779.3 480.8 819.1 496.4C837.4 503.5 857 506.1 875.9 504.3C897.1 502.3 917.5 494.7 934.2 482.1C965.8 458.3 983.2 417.1 979 377.3C975.4 343.6 957.9 313.2 946.4 281C922.5 214.4 925 137.4 951.5 71.0001C958.9 52.4001 968.2 34.7001 979.3 18.2001C1030.2 -57.0999 1118.2 -103.2 1207 -101.2" stroke="#37B6E1" stroke-miterlimit="10"/>
<path d="M-102.4 655.8C-63.6 594.6 12.1 561.8 83.1 575.4C166.8 591.4 239.9 664.7 324 658.6C368.3 655.4 413.1 655.8 456.6 646C506.4 634.8 534.2 600.7 556.8 556.4C585.8 499.5 608.5 433.5 684.5 437C739.4 439.5 775 489.5 824.1 508.8C862.9 524 908.4 517 939.9 490.9C971.4 464.8 987.7 420.6 981.6 378.3C976.4 342.6 956.9 310.7 943.6 277C908.3 188 918.4 82.6001 969.7 5.90013C1021 -70.7999 1111.8 -116.5 1203.3 -111.6" stroke="#2DBBE2" stroke-miterlimit="10"/>
<path d="M-98 664.6C-58.6 608.2 16.6 577.7 87.1 590.2C122.4 596.4 155.9 612.2 189 627.4C222.9 643.1 256.2 658.3 291 662.8C302.2 664.2 313.6 664.6 325.1 663.4C368.4 658.9 412.2 657.8 455.5 647.6C504.6 636.1 532.9 603.4 556.3 561.6C561.7 552 566.9 542.2 572.2 532.5C587.8 504 604.4 477 630.6 462.1C645.3 453.7 662.9 449 684.9 449.8C739.1 451.6 774.6 497.4 822.1 513.9C828.4 516.1 834.9 517.7 841.4 518.7C873.9 523.7 908.2 514.3 933.3 492.2C963.4 465.7 979 421.9 973.3 380C968.5 344.5 950.3 312.4 938 278.7C916.8 220.6 914.4 155.8 929.7 97.0002C937.9 65.6002 951.2 35.9002 969.2 9.70016C1002.2 -38.0998 1050.7 -73.4999 1105.2 -92.1999C1136.5 -102.9 1169.8 -108 1203.2 -106.6" stroke="#33B4E3" stroke-miterlimit="10"/>
<path d="M-93.5 673.4C-53.6 621.8 21.2 593.6 91.3 605C126.5 610.7 159.8 625 192.5 638.6C226 652.5 258.7 665.8 292.9 668.8C303.9 669.8 315 669.7 326.3 668.2C368.7 662.4 411.4 659.9 454.4 649.3C502.7 637.6 531.6 606.1 555.7 566.8C561.3 557.7 566.7 548.6 572.2 539.5C588.3 512.9 605.1 488 631.3 474.2C646.1 466.5 663.6 462 685.2 462.5C738.7 463.7 774.1 505.2 820 518.9C826.1 520.7 832.3 521.9 838.6 522.6C869.9 526 902.7 515.7 926.6 493.3C955.3 466.4 970.2 423.1 965 381.6C960.7 346.3 943.6 314.1 932.5 280.3C913.1 222.2 912 157.7 928.1 99.6001C936.8 68.4001 950.5 39.1001 968.9 13.3001C1002.4 -33.6999 1051 -68.2999 1105.6 -86.9999C1136.9 -97.6999 1170 -102.9 1203.3 -101.7" stroke="#38ADE5" stroke-miterlimit="10"/>
<path d="M-89 682.2C-48.5 635.4 25.8 609.4 95.4 619.7C130.4 624.8 163.6 637.8 196 649.6C229.2 661.8 261.3 673 294.8 674.6C305.6 675.1 316.5 674.6 327.5 672.8C369 665.7 410.6 661.6 453.4 650.7C501 638.6 530.4 608.6 555.3 571.8C561 563.3 566.7 554.8 572.3 546.4C588.9 521.8 605.9 498.8 632.1 486.2C646.9 479.1 664.4 474.8 685.6 475.1C738.4 475.6 773.6 513 818.1 523.8C824 525.2 830 526.1 836.1 526.5C866.2 528.3 897.5 517.1 920.3 494.4C947.7 467.2 961.8 424.3 957.1 383.2C953.2 348 937.4 315.7 927.3 281.9C909.8 223.8 909.8 159.6 926.8 102.2C936 71.2 950.1 42.3 968.8 17C1002.8 -29.2 1051.5 -63 1106.1 -81.7C1137.3 -92.3 1170.4 -97.6 1203.6 -96.8" stroke="#3EA6E6" stroke-miterlimit="10"/>
<path d="M-84.5 691C-43.4 648.9 30.4 625.3 99.6 634.5C134.5 639 167.5 650.6 199.6 660.8C232.5 671.2 263.9 680.4 296.8 680.6C307.4 680.7 318 679.8 328.8 677.6C369.4 669.3 409.9 663.7 452.5 652.4C499.3 640 529.3 611.4 554.9 577C560.8 569.1 566.7 561.2 572.5 553.4C589.6 530.7 606.8 509.7 633 498.3C647.9 491.8 665.3 488 686.1 487.9C738.2 487.7 773.2 520.9 816.2 528.9C821.9 530 827.7 530.5 833.5 530.5C862.4 530.7 892.1 518.6 913.8 495.6C939.8 468 953.1 425.6 949 384.8C945.5 349.8 931 317.3 922 283.5C906.3 225.3 907.6 161.5 925.5 104.7C935.2 73.9 949.8 45.5 968.7 20.5C1003.2 -24.9 1052 -58 1106.7 -76.5C1137.9 -87.1 1170.8 -92.5 1203.9 -91.9" stroke="#43A0E8" stroke-miterlimit="10"/>
<path d="M-80.1 699.7C-38.4 662.4 34.9 641.1 103.6 649.1C138.3 653.1 171.3 663.3 203 671.7C235.5 680.4 266.3 687.6 298.6 686.3C309 685.9 319.4 684.6 329.9 682.1C369.6 672.5 409 665.4 451.3 653.7C497.4 641 527.9 613.7 554.3 581.9C560.4 574.5 566.5 567.3 572.5 560.2C590 539.4 607.6 520.5 633.8 510.2C648.8 504.3 666 500.6 686.5 500.4C737.9 499.8 772.8 528.5 814.2 533.7C819.7 534.4 825.3 534.5 830.8 534.3C858.4 533 886.7 519.9 907.2 496.6C931.9 468.6 944.4 426.6 940.8 386.3C937.7 351.5 924.5 318.9 916.5 285C902.7 226.8 905.2 163.3 923.9 107.2C934.1 76.6001 949.1 48.6001 968.3 24.1001C1003.3 -20.4999 1052.2 -52.7999 1107 -71.2999C1138.1 -81.7999 1170.9 -87.3 1203.9 -87.1" stroke="#4999E9" stroke-miterlimit="10"/>
<path d="M-75.6 708.5C-33.3 676 39.5 656.9 107.7 663.9C142.2 667.3 175.1 676.1 206.5 682.9C238.7 689.8 268.8 695 300.5 692.3C310.7 691.4 320.8 689.8 331.1 686.9C369.9 676 408.2 667.4 450.3 655.4C495.6 642.4 526.7 616.5 553.8 587.1C560.1 580.3 566.4 573.7 572.5 567.2C590.5 548.3 608.3 531.4 634.5 522.3C649.5 517 666.7 513.6 686.8 513.1C737.6 511.8 772.3 536.3 812.1 538.7C817.4 539 822.7 538.8 828.1 538.2C854.5 535.3 881.3 521.3 900.7 497.7C924 469.3 935.8 427.8 932.7 387.9C930 353.3 918 320.5 911.2 286.6C899.2 228.4 903.1 165.2 922.5 109.8C933.2 79.4002 948.6 51.8002 968.1 27.7002C1003.5 -16.0998 1052.5 -47.5998 1107.4 -66.0998C1138.5 -76.5998 1171.2 -82.1998 1204.1 -82.2998" stroke="#4F92EA" stroke-miterlimit="10"/>
<path d="M-71.1 717.3C-28.3 689.6 44.2 672.8 111.9 678.7C146.3 681.5 179 689 210.1 694C242 699.2 271.5 702.3 302.5 698.2C312.5 696.9 322.4 694.8 332.4 691.6C370.3 679.5 407.6 669.3 449.3 656.9C493.9 643.7 525.5 619 553.4 592.2C559.9 585.9 566.4 580 572.7 574.2C591.2 557.3 609.3 542.4 635.4 534.4C650.5 529.8 667.6 526.6 687.3 525.8C737.4 523.9 771.9 544.2 810.2 543.7C815.3 543.6 820.4 543.1 825.5 542.2C850.7 537.7 875.9 522.8 894.2 498.9C916.1 470.1 927.2 429.1 924.6 389.5C922.3 355 911.7 322.1 905.8 288.1C895.8 229.9 900.8 167 921.1 112.3C932.3 82.1002 948.1 55.0002 967.9 31.3002C1003.8 -11.6998 1052.9 -42.3998 1107.9 -60.7998C1138.9 -71.1998 1171.5 -76.8998 1204.3 -77.2998" stroke="#548BEC" stroke-miterlimit="10"/>
<path d="M-66.6 726.1C-23.2 703.2 48.8 688.8 116 693.4C150.2 695.8 182.8 701.7 213.6 705.1C245.1 708.5 274 709.6 304.4 704.1C314.2 702.3 323.8 699.8 333.6 696.3C370.5 682.9 406.8 671.3 448.3 658.5C492.2 645 524.4 621.7 553 597.3C559.7 591.6 566.4 586.3 572.9 581.1C591.8 566.1 610.2 553.3 636.3 546.4C651.5 542.4 668.5 539.5 687.8 538.5C737.2 536 771.6 552 808.3 548.7C813.2 548.3 818.1 547.4 822.9 546.2C846.9 540.1 870.6 524.3 887.7 500.1C908.3 470.9 918.6 430.3 916.4 391.2C914.5 356.9 905.2 323.9 900.4 289.8C892.2 231.6 898.5 169 919.6 115C931.3 85.0002 947.6 58.3002 967.6 35.1002C1004 -7.09981 1053.2 -36.9998 1108.2 -55.3998C1139.1 -65.7998 1171.7 -71.4998 1204.3 -72.2998" stroke="#5A84ED" stroke-miterlimit="10"/>
<path d="M-62.2 734.9C-18.2 716.8 53.3 704.7 120.1 708.2C154.2 710 186.6 714.6 217.1 716.2C248.3 717.9 276.5 717 306.3 710C315.8 707.8 325.3 704.9 334.8 701C370.8 686.3 406 673.2 447.2 660.1C490.3 646.3 523.1 624.4 552.4 602.5C559.3 597.4 566.2 592.7 572.9 588.1C592.3 575 611 564.2 637 558.5C652.3 555.1 669.1 552.4 688.1 551.2C736.8 548 771.1 559.8 806.2 553.7C810.9 552.9 815.6 551.6 820.1 550.1C842.9 542.4 865.1 525.7 881 501.2C900.2 471.7 909.8 431.5 908.1 392.7C906.7 358.6 898.5 325.4 894.9 291.3C888.6 233.1 896.1 170.8 918.1 117.5C930.3 87.7 947 61.4 967.3 38.6C1004.2 -2.8 1053.5 -31.9 1108.6 -50.3C1139.5 -60.6 1171.9 -66.5 1204.5 -67.5" stroke="#607DEE" stroke-miterlimit="10"/>
<path d="M-57.7 743.7C-13.1 730.3 57.8999 720.6 124.2 723C158.1 724.2 190.4 727.4 220.6 727.4C251.5 727.4 279 724.4 308.2 716C317.5 713.3 326.7 710 336 705.8C371.1 689.8 405.2 675.3 446.2 661.7C488.6 647.7 522 627 552 607.7C559.1 603.1 566.2 599.1 573 595.2C592.8 584 611.9 575.3 637.8 570.7C653.2 568 669.9 565.5 688.5 564C736.5 560.2 770.7 567.6 804.2 558.8C808.7 557.6 813.1 556 817.5 554.2C839.1 545 859.7 527.3 874.6 502.5C892.5 472.6 901.3 432.9 900.1 394.5C899.1 360.6 892.2 327.3 889.6 293.1C885.1 234.9 894 172.9 916.7 120.3C929.5 90.8001 946.5 64.8001 967.2 42.5001C1004.6 1.90009 1054 -26.3999 1109.2 -44.7999C1140 -55.0999 1172.3 -60.9999 1204.8 -62.3999" stroke="#6576F0" stroke-miterlimit="10"/>
<path d="M-53.2 752.4C-8.00001 743.8 62.5 736.3 128.4 737.6C162.2 738.3 194.3 740.1 224.1 738.3C254.6 736.5 281.5 731.5 310.1 721.7C319.2 718.5 328.2 714.8 337.2 710.3C371.4 693 404.4 677 445.2 663.1C486.9 648.8 520.9 629.5 551.5 612.6C558.8 608.6 566 605.1 573.1 601.9C593.4 592.6 612.7 586 638.6 582.5C654.1 580.4 670.7 578.2 689 576.5C736.3 572 770.3 575.2 802.3 563.6C806.6 562 810.8 560.1 814.9 557.9C835.3 547.1 854.4 528.5 868.1 503.4C884.6 473.1 892.7 433.8 892 395.9C891.4 362.1 885.8 328.7 884.3 294.5C881.7 236.2 891.8 174.6 915.3 122.7C928.6 93.4002 946.1 67.9001 967 45.9001C1004.9 6.10015 1054.4 -21.3999 1109.6 -39.6999C1140.4 -49.8999 1172.6 -55.9999 1204.9 -57.5999" stroke="#6B70F1" stroke-miterlimit="10"/>
<path d="M-48.7 761.2C-3.00001 757.4 67.1 752.2 132.5 752.4C166.1 752.5 198.1 753 227.6 749.4C257.8 745.9 284.1 738.9 312 727.6C320.9 724 329.7 719.9 338.4 715C371.7 696.4 403.6 679 444.1 664.6C485 650.1 519.6 632.1 551 617.7C558.5 614.3 565.9 611.4 573.2 608.9C593.9 601.5 613.6 597 639.4 594.7C654.9 593.3 671.5 591.3 689.4 589.3C736 584.2 769.9 583.1 800.3 568.7C804.4 566.7 808.4 564.5 812.2 562C831.4 549.6 848.9 530.1 861.5 504.7C876.6 474 884 435.2 883.8 397.6C883.6 364 879.3 330.5 878.8 296.2C878 237.9 889.5 176.6 913.8 125.4C927.6 96.3002 945.5 71.2002 966.7 49.7002C1005.1 10.6002 1054.7 -15.9998 1110 -34.2998C1140.7 -44.4998 1172.8 -50.5999 1205.1 -52.5999" stroke="#7069F3" stroke-miterlimit="10"/>
<path d="M-44.3 770C1.99995 771 71.6 768 136.5 767.2C169.9 766.7 201.8 765.8 231 760.6C260.9 755.3 286.5 746.3 313.8 733.6C322.5 729.5 331 725 339.4 719.8C371.8 699.9 402.6 681 442.9 666.3C483.1 651.6 518.3 634.9 550.3 622.9C558 620 565.6 617.8 573 615.9C594.1 610.4 614.2 608 639.9 606.8C655.5 606 672 604.2 689.5 602C735.4 596.2 769.2 590.9 798 573.6C801.9 571.3 805.7 568.6 809.3 565.8C827.3 551.8 843.3 531.4 854.8 505.7C868.6 474.6 875.2 436.3 875.5 399.1C875.8 365.7 872.6 332 873.3 297.7C874.4 239.4 887.1 178.4 912.2 127.9C926.5 99.0001 944.8 74.3001 966.3 53.2001C1005.2 14.9001 1054.9 -10.8999 1110.3 -29.1999C1141 -39.2999 1172.9 -45.5999 1205.1 -47.8999" stroke="#7662F4" stroke-miterlimit="10"/>
<path d="M-39.8 778.8C7.09995 784.6 76.2999 783.9 140.7 781.9C174 780.9 205.7 778.6 234.6 771.6C264.1 764.6 289.1 753.6 315.8 739.4C324.3 734.9 332.6 729.9 340.7 724.4C372.1 703.2 401.9 682.9 441.9 667.7C481.4 652.7 517.2 637.4 549.9 627.9C557.8 625.6 565.6 624 573.2 622.7C594.8 619.1 615.1 618.1 640.8 618.7C656.5 619 672.8 617 690 614.5C735.2 608.1 768.8 598.4 796.1 578.4C799.8 575.7 803.3 572.7 806.7 569.6C823.5 554 838 532.7 848.3 506.7C860.7 475.2 866.6 437.3 867.4 400.6C868.1 367.4 866.2 333.5 867.9 299.2C870.8 240.9 884.9 180.2 910.7 130.3C925.6 101.6 944.2 77.4 966 56.7C1005.4 19.2 1055.2 -5.8 1110.6 -24C1141.2 -34.1 1173.1 -40.4 1205.1 -43" stroke="#7C5BF5" stroke-miterlimit="10"/>
<path d="M-35.3 787.6C12.2 798.2 80.9 799.6 144.8 796.7C177.9 795 209.6 791.4 238.1 782.8C267.3 774 291.6 761 317.7 745.4C326 740.4 334 735.1 341.9 729.2C372.4 706.6 401.2 685 440.9 669.4C479.6 654.2 516.1 640.3 549.5 633.1C557.6 631.4 565.6 630.4 573.4 629.8C595.4 628.1 616.1 630 641.8 630.9C657.6 631.5 673.8 630 690.6 627.4C735.1 620.3 768.6 606.4 794.3 583.6C797.8 580.5 801.1 577.2 804.2 573.8C819.8 556.7 832.7 534.4 841.9 508.1C853 476.2 858.1 438.8 859.3 402.4C860.5 369.3 859.7 335.4 862.6 300.9C867.2 242.6 882.7 182.2 909.4 133C924.8 104.5 943.9 80.7 965.9 60.5C1005.8 23.8 1055.6 -0.500006 1111.2 -18.6C1141.8 -28.6 1173.5 -35.1 1205.5 -38" stroke="#8154F7" stroke-miterlimit="10"/>
<path d="M-30.9 796.4C17.2 811.8 85.4 815.5 148.9 811.4C181.9 809.2 213.4 804.2 241.6 793.8C270.5 783.3 294.2 768.3 319.6 751.1C327.7 745.7 335.5 739.9 343.1 733.7C372.7 709.8 400.4 686.8 439.9 670.7C477.9 655.3 515 642.7 549 638C557.3 636.9 565.5 636.6 573.5 636.5C595.9 636.2 617 640.7 642.6 642.7C658.5 643.9 674.6 642.7 691 639.8C734.8 632 768.1 613.8 792.3 588.3C795.6 584.8 798.7 581.1 801.6 577.4C815.9 558.7 827.4 535.5 835.5 508.9C845.2 476.7 849.6 439.7 851.3 403.7C852.9 370.8 853.4 336.7 857.3 302.2C863.8 243.9 880.6 183.8 908 135.3C923.9 107.1 943.4 83.6001 965.7 63.8001C1006 27.9001 1056 4.40008 1111.7 -13.6999C1142.2 -23.5999 1173.8 -30.1999 1205.7 -33.3999" stroke="#874DF8" stroke-miterlimit="10"/>
<path d="M-26.4 805.2C22.2 825.3 90 831.4 153 826.2C185.8 823.4 217.2 817 245.1 805C273.6 792.7 296.7 775.7 321.5 757.1C329.4 751.2 336.9 745 344.3 738.5C373 713.3 399.6 688.8 438.8 672.4C476.1 656.7 513.8 645.6 548.5 643.2C557 642.6 565.4 642.9 573.5 643.6C596.4 645.6 617.7 651.8 643.3 654.9C659.3 656.8 675.3 655.8 691.3 652.6C734.4 644.1 767.6 621.7 790.2 593.4C793.3 589.5 796.2 585.5 798.8 581.5C811.9 561.2 821.9 537.1 828.8 510.2C837.1 477.6 840.8 441 843 405.5C845 372.8 846.8 338.6 851.8 304C860.1 245.7 878.3 186 906.4 138.1C922.9 110.1 942.7 87.0002 965.4 67.7002C1006.2 32.6002 1056.3 9.90017 1112 -8.19983C1142.5 -18.0998 1174 -24.7998 1205.7 -28.2998" stroke="#8D46F9" stroke-miterlimit="10"/>
<path d="M-21.9 813.9C27.3 838.8 94.6 847.1 157.1 840.9C189.7 837.5 221 829.8 248.6 816C276.8 802 299.3 783 323.4 762.9C331.1 756.6 338.3 749.9 345.5 743.1C373.2 716.5 398.8 690.7 437.8 673.8C474.4 657.9 512.6 647.7 548 648.2C556.7 648.3 565.3 649 573.6 650.4C596.9 654.3 618.6 662.7 644.1 666.8C660.1 669.4 676 668.5 691.7 665.1C734.1 656 767.1 629.2 788.2 598.2C791.1 594 793.7 589.6 796.1 585.2C808 563.3 816.4 538.3 822.2 511.1C829.2 478.1 832.1 442 834.8 406.8C837.3 374.3 840.2 339.9 846.4 305.3C856.6 247 876.1 187.6 905 140.4C922 112.6 942.3 90.0001 965.2 71.0001C1006.5 36.7001 1056.7 14.8 1112.5 -3.19995C1142.9 -13 1174.3 -19.8 1206 -23.7" stroke="#9240FB" stroke-miterlimit="10"/>
<path d="M-17.4 822.7C32.4 852.4 99.2 863 161.3 855.6C193.8 851.7 224.9 842.5 252.2 827.1C280.1 811.3 301.9 790.3 325.4 768.8C332.8 762 339.9 755 346.8 747.8C373.6 719.9 398.2 692.7 436.8 675.4C472.7 659.3 511.5 650.9 547.6 653.4C556.5 654 565.2 655.4 573.8 657.5C597.6 663.2 619.5 673.8 645 679C661.1 682.3 676.9 681.6 692.2 678C733.9 668.2 766.7 637.2 786.3 603.4C789 598.8 791.4 594.1 793.5 589.4C804.2 565.9 811.1 540 815.7 512.5C821.3 479.1 823.6 443.5 826.7 408.7C829.7 376.3 833.8 341.8 841 307.2C853 248.9 873.9 189.9 903.5 143.3C921.1 115.8 941.7 93.5001 964.9 75.0001C1006.7 41.5001 1057 20.4001 1112.9 2.40009C1143.2 -7.39991 1174.5 -14.1999 1206.1 -18.3999" stroke="#9839FC" stroke-miterlimit="10"/>
<path d="M-13 831.5C37.4 866 103.7 878.9 165.3 870.4C197.6 865.9 228.6 855.4 255.6 838.2C283.1 820.7 304.3 797.7 327.2 774.7C334.4 767.5 341.2 760 347.9 752.5C373.7 723.3 397.3 694.8 435.7 677C470.9 660.8 510.2 653.7 547 658.5C556.1 659.7 565 661.7 573.7 664.4C597.9 671.9 620.2 684.8 645.6 691C661.8 695 677.5 694.4 692.4 690.6C733.4 680 766 644.8 784.1 608.3C786.6 603.3 788.8 598.2 790.7 593.2C800.2 568.2 805.6 541.3 809.1 513.5C813.4 479.7 814.9 444.5 818.5 410.2C821.9 378 827.3 343.4 835.6 308.7C849.5 250.3 871.7 191.7 902 145.8C920.1 118.5 941.1 96.6001 964.6 78.5001C1006.9 45.8001 1057.3 25.5001 1113.2 7.50006C1143.5 -2.19994 1174.7 -9.19995 1206.1 -13.7" stroke="#9D32FE" stroke-miterlimit="10"/>
<path d="M-8.5 840.3C69.3 900.2 181.9 904.1 259.1 849.3C286.3 830 306.8 805 329.1 780.6C363.4 743 386.7 701.4 434.6 678.5C477.6 657.9 529.1 654.2 573.8 671.3C598.5 680.7 621 695.7 646.4 703C713.9 722.3 770 655.1 788 597.2C806.4 538.2 802.8 473.8 810.3 411.9C820.6 326.2 850.8 220.6 900.5 148.4C952.8 72.5002 1026.5 40.7001 1113.6 12.9001C1143.8 3.20015 1174.9 -3.79985 1206.3 -8.59985" stroke="#A32BFF" stroke-miterlimit="10"/>
</g>
</svg>
